<svg xmlns="http://www.w3.org/2000/svg" xmlns:xlink="http://www.w3.org/1999/xlink" width="500" zoomAndPan="magnify" viewBox="0 0 375 374.999991" height="500" preserveAspectRatio="xMidYMid meet" version="1.0"><defs><g/><clipPath id="804bb88d67"><path d="M 141.800781 139 L 233 139 L 233 218.601562 L 141.800781 218.601562 Z M 141.800781 139 " clip-rule="nonzero"/></clipPath><clipPath id="49ab23ba37"><path d="M 182 112.921875 L 202 112.921875 L 202 143 L 182 143 Z M 182 112.921875 " clip-rule="nonzero"/></clipPath><clipPath id="7b60dfa866"><rect x="0" width="133" y="0" height="40"/></clipPath><clipPath id="6ba1a54f21"><rect x="0" width="53" y="0" height="16"/></clipPath></defs><g clip-path="url(#804bb88d67)"><path fill="#000000" d="M 158.765625 150.328125 L 158.765625 149.089844 C 155.746094 152.324219 141.800781 148.609375 141.800781 159.179688 C 142.378906 166.710938 146.816406 171.046875 152.691406 173.144531 C 144.636719 184.175781 154.40625 189.808594 147.175781 200.621094 C 147.535156 201.980469 145.855469 214.605469 145.597656 215.984375 C 147.253906 216.546875 149.691406 217.542969 150.910156 218.804688 C 151.75 218.164062 152.171875 217.125 152.011719 216.085938 C 151.851562 215.046875 151.152344 214.167969 150.171875 213.808594 C 150.191406 211.488281 155.785156 201.238281 155.804688 200.578125 C 156.867188 199.960938 157.84375 199.359375 158.765625 198.761719 C 163.039062 195.484375 165.898438 193.226562 167.335938 191.96875 C 167.675781 191.628906 167.996094 191.308594 168.316406 191.007812 C 173.511719 185.832031 175.769531 182.675781 189.855469 182.316406 C 187.535156 181.316406 183.359375 179.300781 182.441406 178.480469 C 179.503906 175.824219 179.585938 171.207031 181.300781 165.972656 C 180.144531 170.808594 179.945312 176.101562 183.019531 177.859375 C 185.757812 179.417969 187.097656 179.878906 192.152344 181.976562 C 191.753906 184.035156 191.851562 189.390625 191.691406 191.488281 C 191.035156 190.867188 190.113281 190.648438 188.894531 190.808594 C 187.117188 192.328125 186.359375 194.726562 186.976562 197.003906 C 188.914062 196.285156 191.132812 195.84375 193.632812 195.683594 C 194.230469 194.765625 195.949219 189.269531 197.425781 184.234375 L 197.425781 190.910156 C 197.148438 190.507812 197.367188 190.390625 196.367188 190.53125 C 195.769531 192.585938 195.710938 192.628906 194.789062 195.363281 C 195.550781 195.523438 196.308594 195.542969 197.449219 195.503906 L 200.464844 195.324219 C 199.304688 189.851562 200.625 184.15625 204.421875 178.199219 C 205.820312 180.878906 207.5 182.375 209.117188 183.035156 C 216.730469 186.152344 214.589844 177.121094 216.070312 172.746094 C 216.628906 171.109375 217.347656 169.308594 218.269531 167.332031 C 220.507812 168.667969 223.382812 168.191406 225.0625 166.191406 C 223.542969 164.8125 221.882812 163.613281 220.085938 162.636719 C 223.722656 163.773438 227.199219 162.617188 229.496094 160.296875 C 232.09375 157.699219 233.195312 153.625 231.375 149.726562 C 231.335938 151.765625 230.617188 153.5625 229.496094 154.984375 C 226.941406 158.199219 222.203125 159.457031 218.207031 157.121094 C 217.847656 158.480469 218.148438 159.9375 218.988281 161.058594 C 217.707031 159.796875 217.230469 157.960938 217.730469 156.28125 C 213.511719 148.910156 206.839844 139.65625 197.449219 139.058594 C 197.449219 139.058594 197.425781 139.058594 197.425781 139.058594 C 196.648438 138.996094 195.847656 139.015625 195.050781 139.078125 C 194.628906 139.117188 194.210938 139.175781 193.792969 139.238281 L 193.792969 148.007812 L 190.453125 150.445312 L 190.453125 140.136719 C 187.917969 141.074219 185.320312 142.59375 182.679688 144.710938 L 182.679688 154.304688 L 179.34375 156.742188 L 179.34375 147.929688 C 176.566406 150.746094 173.96875 153.425781 171.570312 155.882812 L 171.570312 163.535156 L 168.234375 166.972656 L 168.234375 159.296875 C 167.976562 159.558594 167.675781 159.839844 167.335938 160.175781 C 165.597656 161.816406 162.738281 164.375 158.765625 167.8125 C 156.945312 169.109375 155.328125 169.988281 153.847656 170.308594 C 148.332031 169.75 143.617188 164.8125 143.359375 159.878906 C 142.839844 149.507812 154.628906 153.304688 158.765625 150.328125 " fill-opacity="1" fill-rule="evenodd"/></g><path fill="#d81c36" d="M 176.566406 131.542969 L 176.566406 125.730469 L 174.347656 125.730469 L 174.347656 131.542969 L 171.570312 131.542969 L 171.570312 153.183594 C 174.148438 150.527344 176.726562 147.871094 179.34375 145.25 L 179.34375 131.542969 Z M 168.234375 156.582031 L 168.234375 137.480469 L 165.457031 137.480469 L 165.457031 131.523438 L 163.238281 131.523438 L 163.238281 137.480469 L 160.480469 137.480469 C 160.480469 146.230469 160.480469 154.683594 160.480469 163.8125 C 161.203125 163.175781 161.941406 162.535156 162.660156 161.875 C 163.800781 160.855469 164.957031 159.816406 166.058594 158.777344 C 166.578125 158.28125 167.136719 157.761719 167.617188 157.21875 L 167.695312 157.140625 C 167.875 156.960938 168.054688 156.761719 168.234375 156.582031 Z M 168.234375 156.582031 " fill-opacity="1" fill-rule="evenodd"/><g clip-path="url(#49ab23ba37)"><path fill="#2fac5c" d="M 198.605469 119.675781 L 198.605469 112.863281 L 196.386719 112.863281 L 196.386719 119.675781 L 193.769531 119.675781 L 193.769531 137.320312 C 194.128906 137.257812 194.511719 137.21875 194.871094 137.179688 C 195.75 137.097656 196.628906 137.097656 197.507812 137.160156 L 197.527344 137.160156 C 198.886719 137.238281 200.226562 137.480469 201.503906 137.859375 L 201.503906 119.675781 Z M 182.679688 125.609375 L 182.679688 142.335938 C 185.058594 140.574219 187.65625 139.058594 190.453125 138.136719 L 190.453125 125.609375 L 187.757812 125.609375 L 187.757812 118.976562 L 185.539062 118.976562 L 185.539062 125.628906 L 182.679688 125.628906 Z M 182.679688 125.609375 " fill-opacity="1" fill-rule="evenodd"/></g><g transform="matrix(1, 0, 0, 1, 123, 214)"><g clip-path="url(#7b60dfa866)"><g fill="#e62129" fill-opacity="1"><g transform="translate(0.795428, 31.468627)"><g><path d="M 4.484375 -20.875 L 9.734375 -20.875 L 13.625 0 L 9.375 0 L 8.6875 -4.40625 L 5.609375 -4.40625 L 4.890625 0 L 0.546875 0 Z M 8.25 -7.15625 L 7.140625 -15.3125 L 6.03125 -7.15625 Z M 8.25 -7.15625 "/></g></g></g><g fill="#e62129" fill-opacity="1"><g transform="translate(18.98342, 31.468627)"><g><path d="M 3.421875 -17.4375 L 0.28125 -17.4375 L 0.28125 -20.875 L 11.1875 -20.875 L 11.1875 -17.4375 L 8.0625 -17.4375 L 8.0625 0 L 3.421875 0 Z M 3.421875 -17.4375 "/></g></g></g><g fill="#e62129" fill-opacity="1"><g transform="translate(34.440781, 31.468627)"><g><path d="M 1.546875 -20.875 L 6.15625 -20.875 L 6.15625 -3.125 L 10.953125 -3.125 L 10.953125 0 L 1.546875 0 Z M 1.546875 -20.875 "/></g></g></g><g fill="#e62129" fill-opacity="1"><g transform="translate(49.846623, 31.468627)"><g><path d="M 4.484375 -20.875 L 9.734375 -20.875 L 13.625 0 L 9.375 0 L 8.6875 -4.40625 L 5.609375 -4.40625 L 4.890625 0 L 0.546875 0 Z M 8.25 -7.15625 L 7.140625 -15.3125 L 6.03125 -7.15625 Z M 8.25 -7.15625 "/></g></g></g><g fill="#e62129" fill-opacity="1"><g transform="translate(68.034614, 31.468627)"><g><path d="M 1.546875 -20.875 L 4.796875 -20.875 L 9.0625 -10.828125 L 9.0625 -20.875 L 12.890625 -20.875 L 12.890625 0 L 9.765625 0 L 5.484375 -10.828125 L 5.484375 0 L 1.546875 0 Z M 1.546875 -20.875 "/></g></g></g><g fill="#e62129" fill-opacity="1"><g transform="translate(86.480214, 31.468627)"><g><path d="M 3.421875 -17.4375 L 0.28125 -17.4375 L 0.28125 -20.875 L 11.1875 -20.875 L 11.1875 -17.4375 L 8.0625 -17.4375 L 8.0625 0 L 3.421875 0 Z M 3.421875 -17.4375 "/></g></g></g><g fill="#e62129" fill-opacity="1"><g transform="translate(101.937576, 31.468627)"><g><path d="M 1.578125 -20.875 L 6.1875 -20.875 L 6.1875 0 L 1.578125 0 Z M 1.578125 -20.875 "/></g></g></g><g fill="#e62129" fill-opacity="1"><g transform="translate(113.6854, 31.468627)"><g><path d="M 7.53125 0.3125 C 5.257812 0.3125 3.644531 -0.28125 2.6875 -1.46875 C 1.738281 -2.664062 1.265625 -4.390625 1.265625 -6.640625 L 1.265625 -14.171875 C 1.265625 -16.472656 1.734375 -18.210938 2.671875 -19.390625 C 3.617188 -20.566406 5.238281 -21.15625 7.53125 -21.15625 C 9.707031 -21.15625 11.25 -20.628906 12.15625 -19.578125 C 13.070312 -18.535156 13.53125 -17.050781 13.53125 -15.125 L 13.53125 -13.328125 L 9.015625 -13.328125 L 9.015625 -15.40625 C 9.015625 -16.21875 8.925781 -16.835938 8.75 -17.265625 C 8.582031 -17.691406 8.175781 -17.90625 7.53125 -17.90625 C 6.875 -17.90625 6.441406 -17.675781 6.234375 -17.21875 C 6.023438 -16.769531 5.921875 -16.140625 5.921875 -15.328125 L 5.921875 -5.515625 C 5.921875 -4.691406 6.023438 -4.0625 6.234375 -3.625 C 6.453125 -3.1875 6.882812 -2.96875 7.53125 -2.96875 C 8.164062 -2.96875 8.570312 -3.1875 8.75 -3.625 C 8.925781 -4.0625 9.015625 -4.691406 9.015625 -5.515625 L 9.015625 -7.703125 L 13.53125 -7.703125 L 13.53125 -5.90625 C 13.53125 -3.945312 13.070312 -2.421875 12.15625 -1.328125 C 11.25 -0.234375 9.707031 0.3125 7.53125 0.3125 Z M 7.53125 0.3125 "/></g></g></g></g></g><g transform="matrix(1, 0, 0, 1, 162, 251)"><g clip-path="url(#6ba1a54f21)"><g fill="#5f5d5d" fill-opacity="1"><g transform="translate(0.450877, 12.139589)"><g><path d="M 0.640625 -8.59375 L 2.875 -8.59375 C 3.4375 -8.59375 3.910156 -8.535156 4.296875 -8.421875 C 4.691406 -8.304688 5.007812 -8.082031 5.25 -7.75 C 5.488281 -7.414062 5.609375 -6.945312 5.609375 -6.34375 C 5.609375 -5.832031 5.5 -5.4375 5.28125 -5.15625 C 5.0625 -4.875 4.75 -4.691406 4.34375 -4.609375 C 4.84375 -4.546875 5.222656 -4.335938 5.484375 -3.984375 C 5.742188 -3.628906 5.875 -3.148438 5.875 -2.546875 C 5.875 -0.847656 5.007812 0 3.28125 0 L 0.640625 0 Z M 2.90625 -5.15625 C 3.3125 -5.15625 3.585938 -5.242188 3.734375 -5.421875 C 3.878906 -5.609375 3.953125 -5.898438 3.953125 -6.296875 C 3.953125 -6.628906 3.859375 -6.882812 3.671875 -7.0625 C 3.484375 -7.238281 3.210938 -7.328125 2.859375 -7.328125 L 2.53125 -7.328125 L 2.53125 -5.15625 Z M 2.9375 -1.328125 C 3.34375 -1.328125 3.628906 -1.425781 3.796875 -1.625 C 3.960938 -1.832031 4.046875 -2.148438 4.046875 -2.578125 C 4.046875 -3.066406 3.960938 -3.410156 3.796875 -3.609375 C 3.628906 -3.804688 3.335938 -3.90625 2.921875 -3.90625 L 2.53125 -3.90625 L 2.53125 -1.328125 Z M 2.9375 -1.328125 "/></g></g></g><g fill="#5f5d5d" fill-opacity="1"><g transform="translate(8.830951, 12.139589)"><g><path d="M 3.125 0.125 C 2.476562 0.125 1.96875 0.0195312 1.59375 -0.1875 C 1.21875 -0.394531 0.953125 -0.703125 0.796875 -1.109375 C 0.648438 -1.515625 0.578125 -2.03125 0.578125 -2.65625 L 0.578125 -8.59375 L 2.453125 -8.59375 L 2.453125 -2.375 C 2.453125 -2.03125 2.492188 -1.753906 2.578125 -1.546875 C 2.671875 -1.335938 2.851562 -1.234375 3.125 -1.234375 C 3.382812 -1.234375 3.554688 -1.335938 3.640625 -1.546875 C 3.734375 -1.753906 3.78125 -2.03125 3.78125 -2.375 L 3.78125 -8.59375 L 5.671875 -8.59375 L 5.671875 -2.65625 C 5.671875 -2.03125 5.59375 -1.515625 5.4375 -1.109375 C 5.28125 -0.703125 5.015625 -0.394531 4.640625 -0.1875 C 4.265625 0.0195312 3.757812 0.125 3.125 0.125 Z M 3.125 0.125 "/></g></g></g><g fill="#5f5d5d" fill-opacity="1"><g transform="translate(17.211026, 12.139589)"><g><path d="M 0.640625 -8.59375 L 2.53125 -8.59375 L 2.53125 -1.28125 L 4.515625 -1.28125 L 4.515625 0 L 0.640625 0 Z M 0.640625 -8.59375 "/></g></g></g><g fill="#5f5d5d" fill-opacity="1"><g transform="translate(24.053227, 12.139589)"><g><path d="M 0.640625 -8.59375 L 2.53125 -8.59375 L 2.53125 -1.28125 L 4.515625 -1.28125 L 4.515625 0 L 0.640625 0 Z M 0.640625 -8.59375 "/></g></g></g><g fill="#5f5d5d" fill-opacity="1"><g transform="translate(30.895429, 12.139589)"><g><path d="M 0.640625 -8.59375 L 2.546875 -8.59375 L 2.546875 0 L 0.640625 0 Z M 0.640625 -8.59375 "/></g></g></g><g fill="#5f5d5d" fill-opacity="1"><g transform="translate(36.231583, 12.139589)"><g><path d="M 3.09375 0.125 C 2.164062 0.125 1.503906 -0.113281 1.109375 -0.59375 C 0.710938 -1.070312 0.515625 -1.773438 0.515625 -2.703125 L 0.515625 -5.90625 C 0.515625 -6.832031 0.710938 -7.53125 1.109375 -8 C 1.503906 -8.46875 2.164062 -8.703125 3.09375 -8.703125 C 4.03125 -8.703125 4.695312 -8.460938 5.09375 -7.984375 C 5.5 -7.515625 5.703125 -6.820312 5.703125 -5.90625 L 5.703125 -2.703125 C 5.703125 -1.773438 5.5 -1.070312 5.09375 -0.59375 C 4.695312 -0.113281 4.03125 0.125 3.09375 0.125 Z M 3.09375 -1.21875 C 3.363281 -1.21875 3.539062 -1.304688 3.625 -1.484375 C 3.707031 -1.671875 3.75 -1.921875 3.75 -2.234375 L 3.75 -6.359375 C 3.75 -6.679688 3.707031 -6.929688 3.625 -7.109375 C 3.539062 -7.285156 3.363281 -7.375 3.09375 -7.375 C 2.84375 -7.375 2.675781 -7.28125 2.59375 -7.09375 C 2.507812 -6.914062 2.46875 -6.671875 2.46875 -6.359375 L 2.46875 -2.234375 C 2.46875 -1.921875 2.503906 -1.671875 2.578125 -1.484375 C 2.648438 -1.304688 2.820312 -1.21875 3.09375 -1.21875 Z M 3.09375 -1.21875 "/></g></g></g><g fill="#5f5d5d" fill-opacity="1"><g transform="translate(44.590443, 12.139589)"><g><path d="M 0.640625 -8.59375 L 1.96875 -8.59375 L 3.734375 -4.453125 L 3.734375 -8.59375 L 5.3125 -8.59375 L 5.3125 0 L 4.015625 0 L 2.265625 -4.453125 L 2.265625 0 L 0.640625 0 Z M 0.640625 -8.59375 "/></g></g></g></g></g></svg>