<svg xmlns="http://www.w3.org/2000/svg" xmlns:xlink="http://www.w3.org/1999/xlink" width="500" zoomAndPan="magnify" viewBox="0 0 375 374.999991" height="500" preserveAspectRatio="xMidYMid meet" version="1.0"><defs><g/><clipPath id="928023a365"><path d="M 18.75 135.371094 L 356.25 135.371094 L 356.25 247.871094 L 18.75 247.871094 Z M 18.75 135.371094 " clip-rule="nonzero"/></clipPath><clipPath id="887a0a89ee"><path d="M 36 135.371094 L 339 135.371094 C 343.574219 135.371094 347.960938 137.1875 351.199219 140.421875 C 354.433594 143.660156 356.25 148.046875 356.25 152.621094 L 356.25 230.621094 C 356.25 235.195312 354.433594 239.582031 351.199219 242.820312 C 347.960938 246.054688 343.574219 247.871094 339 247.871094 L 36 247.871094 C 31.425781 247.871094 27.039062 246.054688 23.800781 242.820312 C 20.566406 239.582031 18.75 235.195312 18.75 230.621094 L 18.75 152.621094 C 18.75 148.046875 20.566406 143.660156 23.800781 140.421875 C 27.039062 137.1875 31.425781 135.371094 36 135.371094 Z M 36 135.371094 " clip-rule="nonzero"/></clipPath><clipPath id="221666e43e"><path d="M 54.265625 167 L 124 167 L 124 228 L 54.265625 228 Z M 54.265625 167 " clip-rule="nonzero"/></clipPath><clipPath id="75cb0fd6c7"><path d="M 85 147.066406 L 100 147.066406 L 100 170 L 85 170 Z M 85 147.066406 " clip-rule="nonzero"/></clipPath><clipPath id="c669568869"><rect x="0" width="78" y="0" height="24"/></clipPath></defs><g clip-path="url(#928023a365)"><g clip-path="url(#887a0a89ee)"><path stroke-linecap="butt" transform="matrix(0.75, 0, 0, 0.75, 18.750003, 135.37089)" fill="none" stroke-linejoin="miter" d="M 22.999997 0.000272319 L 427.000024 0.000272319 C 433.098982 0.000272319 438.947941 2.422147 443.26565 6.734648 C 447.57815 11.052356 450.000025 16.901315 450.000025 23.000274 L 450.000025 127.000281 C 450.000025 133.099239 447.57815 138.948198 443.26565 143.265907 C 438.947941 147.578407 433.098982 150.000282 427.000024 150.000282 L 22.999997 150.000282 C 16.901038 150.000282 11.05208 147.578407 6.734371 143.265907 C 2.421871 138.948198 -0.00000435833 133.099239 -0.00000435833 127.000281 L -0.00000435833 23.000274 C -0.00000435833 16.901315 2.421871 11.052356 6.734371 6.734648 C 11.05208 2.422147 16.901038 0.000272319 22.999997 0.000272319 Z M 22.999997 0.000272319 " stroke="#000000" stroke-width="6" stroke-opacity="1" stroke-miterlimit="4"/></g></g><g clip-path="url(#221666e43e)"><path fill="#000000" d="M 67.230469 175.648438 L 67.230469 174.703125 C 64.925781 177.175781 54.265625 174.335938 54.265625 182.410156 C 54.710938 188.167969 58.097656 191.480469 62.589844 193.082031 C 56.433594 201.511719 63.902344 205.816406 58.375 214.074219 C 58.648438 215.113281 57.367188 224.761719 57.167969 225.816406 C 58.433594 226.242188 60.296875 227.007812 61.230469 227.96875 C 61.871094 227.480469 62.191406 226.6875 62.070312 225.890625 C 61.945312 225.097656 61.414062 224.425781 60.664062 224.152344 C 60.679688 222.382812 64.953125 214.550781 64.96875 214.046875 C 65.777344 213.570312 66.527344 213.113281 67.230469 212.65625 C 70.496094 210.152344 72.679688 208.425781 73.777344 207.464844 C 74.039062 207.207031 74.28125 206.960938 74.527344 206.730469 C 78.496094 202.777344 80.222656 200.367188 90.984375 200.089844 C 89.214844 199.328125 86.023438 197.785156 85.320312 197.160156 C 83.078125 195.128906 83.136719 191.601562 84.449219 187.601562 C 83.566406 191.296875 83.414062 195.34375 85.761719 196.6875 C 87.855469 197.878906 88.878906 198.226562 92.742188 199.832031 C 92.433594 201.402344 92.511719 205.496094 92.390625 207.097656 C 91.886719 206.625 91.183594 206.457031 90.253906 206.578125 C 88.894531 207.738281 88.3125 209.570312 88.785156 211.3125 C 90.265625 210.761719 91.960938 210.425781 93.871094 210.304688 C 94.328125 209.601562 95.640625 205.402344 96.769531 201.554688 L 96.769531 206.65625 C 96.558594 206.351562 96.726562 206.257812 95.960938 206.367188 C 95.503906 207.9375 95.457031 207.96875 94.757812 210.058594 C 95.335938 210.183594 95.917969 210.199219 96.785156 210.167969 L 99.09375 210.03125 C 98.207031 205.847656 99.214844 201.496094 102.113281 196.945312 C 103.183594 198.992188 104.464844 200.136719 105.703125 200.640625 C 111.519531 203.023438 109.886719 196.121094 111.015625 192.777344 C 111.441406 191.527344 111.992188 190.152344 112.695312 188.640625 C 114.40625 189.664062 116.601562 189.296875 117.886719 187.769531 C 116.726562 186.71875 115.457031 185.800781 114.085938 185.054688 C 116.863281 185.921875 119.519531 185.039062 121.273438 183.265625 C 123.257812 181.28125 124.097656 178.167969 122.710938 175.191406 C 122.679688 176.746094 122.128906 178.121094 121.273438 179.207031 C 119.320312 181.664062 115.703125 182.625 112.648438 180.839844 C 112.375 181.878906 112.601562 182.992188 113.246094 183.847656 C 112.265625 182.886719 111.902344 181.480469 112.28125 180.199219 C 109.0625 174.5625 103.960938 167.496094 96.785156 167.039062 C 96.785156 167.039062 96.769531 167.039062 96.769531 167.039062 C 96.175781 166.992188 95.566406 167.007812 94.953125 167.054688 C 94.632812 167.082031 94.3125 167.128906 93.992188 167.175781 L 93.992188 173.878906 L 91.441406 175.738281 L 91.441406 167.863281 C 89.503906 168.578125 87.519531 169.738281 85.503906 171.359375 L 85.503906 178.6875 L 82.953125 180.550781 L 82.953125 173.816406 C 80.832031 175.96875 78.847656 178.015625 77.015625 179.890625 L 77.015625 185.738281 L 74.464844 188.367188 L 74.464844 182.503906 C 74.265625 182.703125 74.039062 182.914062 73.777344 183.175781 C 72.449219 184.425781 70.265625 186.382812 67.230469 189.007812 C 65.839844 190 64.601562 190.671875 63.472656 190.914062 C 59.261719 190.488281 55.65625 186.71875 55.457031 182.945312 C 55.0625 175.023438 64.070312 177.921875 67.230469 175.648438 " fill-opacity="1" fill-rule="evenodd"/></g><path fill="#d81c36" d="M 80.832031 161.296875 L 80.832031 156.855469 L 79.136719 156.855469 L 79.136719 161.296875 L 77.015625 161.296875 L 77.015625 177.832031 C 78.984375 175.800781 80.953125 173.769531 82.953125 171.769531 L 82.953125 161.296875 Z M 74.464844 180.425781 L 74.464844 165.832031 L 72.34375 165.832031 L 72.34375 161.28125 L 70.648438 161.28125 L 70.648438 165.832031 L 68.542969 165.832031 C 68.542969 172.519531 68.542969 178.976562 68.542969 185.953125 C 69.09375 185.464844 69.65625 184.976562 70.207031 184.472656 C 71.078125 183.695312 71.960938 182.898438 72.800781 182.105469 C 73.199219 181.722656 73.625 181.328125 73.992188 180.914062 L 74.023438 180.886719 L 74.054688 180.855469 C 74.191406 180.71875 74.328125 180.5625 74.464844 180.425781 Z M 74.464844 180.425781 " fill-opacity="1" fill-rule="evenodd"/><g clip-path="url(#75cb0fd6c7)"><path fill="#2fac5c" d="M 97.671875 152.226562 L 97.671875 147.023438 L 95.976562 147.023438 L 95.976562 152.226562 L 93.976562 152.226562 L 93.976562 165.710938 C 94.253906 165.664062 94.542969 165.632812 94.816406 165.601562 C 95.488281 165.542969 96.160156 165.542969 96.832031 165.585938 L 96.847656 165.585938 C 97.886719 165.648438 98.910156 165.832031 99.886719 166.121094 L 99.886719 152.226562 Z M 85.503906 156.761719 L 85.503906 169.542969 C 87.320312 168.199219 89.304688 167.039062 91.441406 166.335938 L 91.441406 156.761719 L 89.382812 156.761719 L 89.382812 151.695312 L 87.6875 151.695312 L 87.6875 156.777344 L 85.503906 156.777344 Z M 85.503906 156.761719 " fill-opacity="1" fill-rule="evenodd"/></g><g fill="#000000" fill-opacity="1"><g transform="translate(131.114981, 198.857857)"><g><path d="M 6.515625 -30.328125 L 14.15625 -30.328125 L 19.796875 0 L 13.625 0 L 12.609375 -6.40625 L 8.15625 -6.40625 L 7.109375 0 L 0.78125 0 Z M 11.984375 -10.40625 L 10.375 -22.234375 L 8.765625 -10.40625 Z M 11.984375 -10.40625 "/></g></g></g><g fill="#000000" fill-opacity="1"><g transform="translate(157.540898, 198.857857)"><g><path d="M 4.984375 -25.34375 L 0.40625 -25.34375 L 0.40625 -30.328125 L 16.25 -30.328125 L 16.25 -25.34375 L 11.71875 -25.34375 L 11.71875 0 L 4.984375 0 Z M 4.984375 -25.34375 "/></g></g></g><g fill="#000000" fill-opacity="1"><g transform="translate(179.999263, 198.857857)"><g><path d="M 2.25 -30.328125 L 8.953125 -30.328125 L 8.953125 -4.53125 L 15.90625 -4.53125 L 15.90625 0 L 2.25 0 Z M 2.25 -30.328125 "/></g></g></g><g fill="#000000" fill-opacity="1"><g transform="translate(202.382772, 198.857857)"><g><path d="M 6.515625 -30.328125 L 14.15625 -30.328125 L 19.796875 0 L 13.625 0 L 12.609375 -6.40625 L 8.15625 -6.40625 L 7.109375 0 L 0.78125 0 Z M 11.984375 -10.40625 L 10.375 -22.234375 L 8.765625 -10.40625 Z M 11.984375 -10.40625 "/></g></g></g><g fill="#000000" fill-opacity="1"><g transform="translate(228.808689, 198.857857)"><g><path d="M 2.25 -30.328125 L 6.96875 -30.328125 L 13.171875 -15.71875 L 13.171875 -30.328125 L 18.71875 -30.328125 L 18.71875 0 L 14.1875 0 L 7.96875 -15.71875 L 7.96875 0 L 2.25 0 Z M 2.25 -30.328125 "/></g></g></g><g fill="#000000" fill-opacity="1"><g transform="translate(255.608896, 198.857857)"><g><path d="M 4.984375 -25.34375 L 0.40625 -25.34375 L 0.40625 -30.328125 L 16.25 -30.328125 L 16.25 -25.34375 L 11.71875 -25.34375 L 11.71875 0 L 4.984375 0 Z M 4.984375 -25.34375 "/></g></g></g><g fill="#000000" fill-opacity="1"><g transform="translate(278.067261, 198.857857)"><g><path d="M 2.28125 -30.328125 L 8.984375 -30.328125 L 8.984375 0 L 2.28125 0 Z M 2.28125 -30.328125 "/></g></g></g><g fill="#000000" fill-opacity="1"><g transform="translate(295.135757, 198.857857)"><g><path d="M 10.9375 0.453125 C 7.632812 0.453125 5.289062 -0.410156 3.90625 -2.140625 C 2.519531 -3.878906 1.828125 -6.382812 1.828125 -9.65625 L 1.828125 -20.59375 C 1.828125 -23.9375 2.515625 -26.460938 3.890625 -28.171875 C 5.265625 -29.878906 7.613281 -30.734375 10.9375 -30.734375 C 14.101562 -30.734375 16.347656 -29.972656 17.671875 -28.453125 C 18.992188 -26.929688 19.65625 -24.769531 19.65625 -21.96875 L 19.65625 -19.359375 L 13.109375 -19.359375 L 13.109375 -22.390625 C 13.109375 -23.554688 12.984375 -24.453125 12.734375 -25.078125 C 12.484375 -25.703125 11.882812 -26.015625 10.9375 -26.015625 C 9.988281 -26.015625 9.363281 -25.679688 9.0625 -25.015625 C 8.757812 -24.359375 8.609375 -23.445312 8.609375 -22.28125 L 8.609375 -8.015625 C 8.609375 -6.816406 8.765625 -5.898438 9.078125 -5.265625 C 9.390625 -4.628906 10.007812 -4.3125 10.9375 -4.3125 C 11.851562 -4.3125 12.441406 -4.628906 12.703125 -5.265625 C 12.972656 -5.898438 13.109375 -6.816406 13.109375 -8.015625 L 13.109375 -11.1875 L 19.65625 -11.1875 L 19.65625 -8.578125 C 19.65625 -5.734375 18.992188 -3.515625 17.671875 -1.921875 C 16.347656 -0.335938 14.101562 0.453125 10.9375 0.453125 Z M 10.9375 0.453125 "/></g></g></g><g transform="matrix(1, 0, 0, 1, 186, 207)"><g clip-path="url(#c669568869)"><g fill="#5f5d5d" fill-opacity="1"><g transform="translate(1.273605, 18.082851)"><g><path d="M 0.921875 -12.484375 L 4.171875 -12.484375 C 4.984375 -12.484375 5.675781 -12.398438 6.25 -12.234375 C 6.820312 -12.066406 7.28125 -11.738281 7.625 -11.25 C 7.976562 -10.769531 8.15625 -10.09375 8.15625 -9.21875 C 8.15625 -8.476562 7.992188 -7.898438 7.671875 -7.484375 C 7.359375 -7.078125 6.910156 -6.816406 6.328125 -6.703125 C 7.046875 -6.609375 7.59375 -6.304688 7.96875 -5.796875 C 8.351562 -5.285156 8.546875 -4.585938 8.546875 -3.703125 C 8.546875 -1.234375 7.285156 0 4.765625 0 L 0.921875 0 Z M 4.21875 -7.5 C 4.8125 -7.5 5.210938 -7.628906 5.421875 -7.890625 C 5.628906 -8.160156 5.734375 -8.578125 5.734375 -9.140625 C 5.734375 -9.640625 5.597656 -10.015625 5.328125 -10.265625 C 5.066406 -10.515625 4.675781 -10.640625 4.15625 -10.640625 L 3.6875 -10.640625 L 3.6875 -7.5 Z M 4.265625 -1.921875 C 4.859375 -1.921875 5.273438 -2.066406 5.515625 -2.359375 C 5.753906 -2.660156 5.875 -3.125 5.875 -3.75 C 5.875 -4.457031 5.753906 -4.953125 5.515625 -5.234375 C 5.273438 -5.523438 4.851562 -5.671875 4.25 -5.671875 L 3.6875 -5.671875 L 3.6875 -1.921875 Z M 4.265625 -1.921875 "/></g></g></g><g fill="#5f5d5d" fill-opacity="1"><g transform="translate(13.447871, 18.082851)"><g><path d="M 4.53125 0.1875 C 3.59375 0.1875 2.851562 0.0351562 2.3125 -0.265625 C 1.769531 -0.566406 1.382812 -1.015625 1.15625 -1.609375 C 0.9375 -2.203125 0.828125 -2.957031 0.828125 -3.875 L 0.828125 -12.484375 L 3.5625 -12.484375 L 3.5625 -3.453125 C 3.5625 -2.953125 3.625 -2.550781 3.75 -2.25 C 3.882812 -1.945312 4.144531 -1.796875 4.53125 -1.796875 C 4.925781 -1.796875 5.179688 -1.945312 5.296875 -2.25 C 5.421875 -2.550781 5.484375 -2.953125 5.484375 -3.453125 L 5.484375 -12.484375 L 8.234375 -12.484375 L 8.234375 -3.875 C 8.234375 -2.957031 8.117188 -2.203125 7.890625 -1.609375 C 7.671875 -1.015625 7.289062 -0.566406 6.75 -0.265625 C 6.207031 0.0351562 5.46875 0.1875 4.53125 0.1875 Z M 4.53125 0.1875 "/></g></g></g><g fill="#5f5d5d" fill-opacity="1"><g transform="translate(25.622138, 18.082851)"><g><path d="M 0.921875 -12.484375 L 3.6875 -12.484375 L 3.6875 -1.859375 L 6.546875 -1.859375 L 6.546875 0 L 0.921875 0 Z M 0.921875 -12.484375 "/></g></g></g><g fill="#5f5d5d" fill-opacity="1"><g transform="translate(35.562239, 18.082851)"><g><path d="M 0.921875 -12.484375 L 3.6875 -12.484375 L 3.6875 -1.859375 L 6.546875 -1.859375 L 6.546875 0 L 0.921875 0 Z M 0.921875 -12.484375 "/></g></g></g><g fill="#5f5d5d" fill-opacity="1"><g transform="translate(45.502341, 18.082851)"><g><path d="M 0.9375 -12.484375 L 3.703125 -12.484375 L 3.703125 0 L 0.9375 0 Z M 0.9375 -12.484375 "/></g></g></g><g fill="#5f5d5d" fill-opacity="1"><g transform="translate(53.254511, 18.082851)"><g><path d="M 4.5 0.1875 C 3.15625 0.1875 2.191406 -0.15625 1.609375 -0.84375 C 1.035156 -1.539062 0.75 -2.570312 0.75 -3.9375 L 0.75 -8.578125 C 0.75 -9.929688 1.035156 -10.945312 1.609375 -11.625 C 2.191406 -12.3125 3.15625 -12.65625 4.5 -12.65625 C 5.851562 -12.65625 6.820312 -12.3125 7.40625 -11.625 C 7.988281 -10.9375 8.28125 -9.921875 8.28125 -8.578125 L 8.28125 -3.9375 C 8.28125 -2.570312 7.988281 -1.539062 7.40625 -0.84375 C 6.820312 -0.15625 5.851562 0.1875 4.5 0.1875 Z M 4.5 -1.78125 C 4.894531 -1.78125 5.148438 -1.910156 5.265625 -2.171875 C 5.390625 -2.429688 5.453125 -2.785156 5.453125 -3.234375 L 5.453125 -9.25 C 5.453125 -9.71875 5.390625 -10.078125 5.265625 -10.328125 C 5.148438 -10.585938 4.894531 -10.71875 4.5 -10.71875 C 4.132812 -10.71875 3.890625 -10.585938 3.765625 -10.328125 C 3.640625 -10.066406 3.578125 -9.707031 3.578125 -9.25 L 3.578125 -3.234375 C 3.578125 -2.785156 3.632812 -2.429688 3.75 -2.171875 C 3.863281 -1.910156 4.113281 -1.78125 4.5 -1.78125 Z M 4.5 -1.78125 "/></g></g></g><g fill="#5f5d5d" fill-opacity="1"><g transform="translate(65.397958, 18.082851)"><g><path d="M 0.921875 -12.484375 L 2.875 -12.484375 L 5.421875 -6.484375 L 5.421875 -12.484375 L 7.703125 -12.484375 L 7.703125 0 L 5.84375 0 L 3.28125 -6.484375 L 3.28125 0 L 0.921875 0 Z M 0.921875 -12.484375 "/></g></g></g></g></g></svg>